<?xml version="1.0" encoding="utf-8"?>
<!-- Generator: Adobe Illustrator 23.0.2, SVG Export Plug-In . SVG Version: 6.00 Build 0)  -->
<svg version="1.1" id="Ebene_1" xmlns="http://www.w3.org/2000/svg" xmlns:xlink="http://www.w3.org/1999/xlink" x="0px" y="0px"
	 viewBox="0 0 224.2 43.8" style="enable-background:new 0 0 224.2 43.8;" xml:space="preserve">
<style type="text/css">
	.st0{fill:#FFFFFF;}
</style>
<g>
	<g>
		<path class="st0" d="M38.8,7.8C35,3.3,29.7,0.5,23.9,0.1C23.2,0,22.5,0,21.9,0C16.8,0,11.9,1.8,7.8,5.1C3.3,8.9,0.6,14.2,0.1,20
			c-0.5,5.8,1.3,11.5,5,16c3.8,4.5,9.1,7.3,14.9,7.7c5.8,0.5,11.5-1.3,16-5c4.5-3.8,7.3-9.1,7.7-14.9C44.3,18,42.5,12.3,38.8,7.8z
			 M27,6.5L27,6.5C27,6.6,27,6.6,27,6.5l2.5,5l0,0l-5,2.5l0,0l0,0l-2.5-5l0,0l0,0L27,6.5z M15.1,8.7l5-2.5l0,0l3,1l0,0l0,0l-5,2.5
			l0,0l0,0L15.1,8.7C15.1,8.7,15.1,8.7,15.1,8.7C15.1,8.7,15.1,8.7,15.1,8.7z M7.4,29.4L7.4,29.4C7.4,29.4,7.4,29.4,7.4,29.4L8.9,25
			l0,0l0,0l4.4,1.5l0,0l0,0L7.4,29.4L7.4,29.4z M12.5,28.2L12.5,28.2L12.5,28.2l8.5-4.3l0,0l4.3,8.5l0,0l0,0l0,0L12.5,28.2z
			 M26.7,39.1L26.7,39.1L26.7,39.1l-4.4-1.5l0,0l1.5-4.4l0,0l0,0L26.7,39.1L26.7,39.1z M31,17.5l-12,6l0,0l0,0l0,0l3-9l0,0L31,17.5
			C31.1,17.5,31.1,17.5,31,17.5C31.1,17.5,31.1,17.5,31,17.5z M36.9,17.2l-3.2,1.6l0,0l0,0l-1.6-3.2l0,0l0,0L36.9,17.2L36.9,17.2
			L36.9,17.2z"/>
	</g>
	<path class="st0" d="M201.6,20.6l5.6-6.3c0,0,0,0,0-0.1l0,0h-4.4l0,0l-5.7,6.5v-6.4l0,0h-3.8l0,0v15.2l0,0h3.8l0,0v-3.7l1.9-2.2
		l3.9,5.9l0,0h4.6l0,0c0,0,0,0,0-0.1L201.6,20.6z M186.3,14.3C186.2,14.3,186.2,14.3,186.3,14.3v15.2l0,0h3.8l0,0V14.3l0,0H186.3z
		 M179,14.2C179,14.2,179,14.3,179,14.2l-4.1,9l-4-8.9l0,0h-4.2l0,0v15.2l0,0h3.4l0,0v-9.6l3.5,8.1l0,0h2.5l0,0l3.5-8.1v9.6l0,0h3.4
		l0,0V14.3l0,0h-4V14.2z M156,26.4v-3h7.1l0,0v-3l0,0H156v-2.9h7.9l0,0v-3l0,0h-11.8l0,0v15.2l0,0h12l0,0v-3l0,0H156V26.4z
		 M124.5,20.6l5.6-6.3c0,0,0,0,0-0.1l0,0h-4.4l0,0l-5.7,6.5v-6.4l0,0h-3.8l0,0v15.2l0,0h3.8l0,0v-3.7l1.9-2.2l4,5.9l0,0h4.6l0,0
		c0,0,0,0,0-0.1L124.5,20.6z M109.4,14.3C109.3,14.3,109.3,14.3,109.4,14.3v9.3l-6.9-9.2l0,0h-3.4l0,0v15.2l0,0h3.6l0,0v-9.2
		l6.8,9.2l0,0h3.4l0,0V14.3l0,0H109.4z M54.3,14.3L54.3,14.3v15.2l0,0h3.8l0,0V24h6.7l0,0v-3l0,0h-6.7v-3.4h7.3l0,0v-3l0,0H54.3
		V14.3z M218,14.4h-3.9l-6.5,15.1h3.8l1.1-2.8l0,0h6.6l0,0l1.1,2.8h4L218,14.4z M218.1,23.8L218.1,23.8h-4.4l0,0l0,0l2.2-5.6l0,0
		l0,0L218.1,23.8C218.2,23.8,218.2,23.8,218.1,23.8z M137,14.4l-6.5,15.1h3.8l1.1-2.8l0,0h6.6l0,0l1.1,2.8h4l-6.3-15.1
		C140.8,14.4,137,14.4,137,14.4z M141,23.8L141,23.8h-4.4l0,0l0,0l2.2-5.6l0,0l0,0L141,23.8L141,23.8z M87.9,14.4l-6.5,15h3.8
		l1.1-2.8l0,0h6.6l0,0l1.1,2.8h4l-6.3-15.1h-3.8V14.4z M91.9,23.8C91.9,23.8,91.8,23.8,91.9,23.8h-4.4l0,0l0,0l2.2-5.6l0,0l0,0
		L91.9,23.8L91.9,23.8z M77.6,24.5C77.6,24.5,77.6,24.4,77.6,24.5c1.8-0.9,2.7-2.6,2.7-4.9c0-3.3-2.3-5.2-6.2-5.2h-6.7v15.1h3.7
		v-4.2l0,0h3l0,0l2.2,4.2h4.2L77.6,24.5L77.6,24.5z M74.1,22.2h-2.9l0,0v-4.8l0,0h2.9c1.7,0,2.7,0.9,2.7,2.4
		C76.8,21.3,75.8,22.2,74.1,22.2z"/>
</g>
</svg>
